<svg width="1024" height="1024" xmlns="http://www.w3.org/2000/svg" data-spm-anchor-id="a313x.search_index.0.i12.5bcb3a81D6JqjO" p-id="7217" version="1.1" class="icon" t="1713620766829">
 <defs>
  <linearGradient y2="0" x2="1" y1="0" x1="0" id="svg_13">
   <stop offset="0" stop-color="#C48157"/>
   <stop offset="1" stop-color="#3b7ea8"/>
  </linearGradient>
  <linearGradient y2="1" x2="0.97656" y1="0" x1="0" id="svg_16">
   <stop offset="0" stop-color="#C48157"/>
   <stop offset="1" stop-color="#3b7ea8"/>
  </linearGradient>
  <linearGradient y2="0" x2="1" y1="0.43439" x1="0" id="svg_18">
   <stop offset="0" stop-color="#C48157"/>
   <stop offset="1" stop-color="#3b7ea8"/>
  </linearGradient>
 </defs>
 <g>
  <title>Layer 1</title>
  <path id="svg_1" data-spm-anchor-id="a313x.search_index.0.i1.5bcb3a81D6JqjO" p-id="7218" fill="url(#svg_16)" d="m507.73929,1024c-112.01903,0 -178.98692,-260.29542 -178.98692,-512.06764s66.96789,-511.93236 178.98692,-511.93236s179.1222,260.29542 179.1222,511.93236s-66.96789,512.06764 -179.1222,512.06764zm0,-993.69534c-87.66707,0 -148.81755,253.80156 -148.81755,481.6277s61.15048,481.76298 148.81755,481.76298s148.81754,-253.93685 148.81754,-481.76298s-60.74461,-481.6277 -148.81754,-481.6277z"/>
  <path id="svg_2" data-spm-anchor-id="a313x.search_index.0.i2.5bcb3a81D6JqjO" p-id="7219" fill="url(#svg_13)" d="m840.9553,813.22024c-104.57815,0 -266.5187,-56.00951 -422.77712,-146.11177c-116.21297,-67.64434 -216.46188,-145.43533 -284.10622,-220.24997c-70.35011,-79.00859 -95.10794,-146.78821 -69.67367,-190.89232c11.9054,-20.69917 40.5866,-45.32171 110.12498,-45.32171c104.57815,0 266.5187,56.00951 422.77712,146.24706c116.21298,67.64434 216.46189,145.43533 284.10622,220.24997c70.4854,79.00859 94.70208,146.78821 69.80896,190.89232c-12.04069,20.56388 -40.85718,45.18642 -110.26027,45.18642zm-666.43203,-572.27111c-30.30466,0 -69.53838,5.27626 -83.87898,30.16938c-17.8581,30.84582 6.89973,89.01995 66.15617,155.58198c64.80327,72.51473 163.02285,148.54697 276.66534,214.16198c151.92919,87.66706 308.05232,142.1884 407.62479,142.1884c30.43995,0 69.53838,-5.27626 84.01427,-30.16938c17.8581,-30.98111 -6.89973,-89.01995 -66.29146,-155.58198c-64.80327,-72.51473 -162.34641,-148.81754 -276.53005,-214.16197c-152.06448,-87.66707 -308.18761,-142.1884 -407.76008,-142.1884l0,-0.00001z"/>
  <path id="svg_3" data-spm-anchor-id="a313x.search_index.0.i0.5bcb3a81D6JqjO" p-id="7220" fill="url(#svg_18)" d="m174.52327,813.35553c-69.40309,0 -98.21958,-24.75783 -110.12498,-45.32171c-25.43427,-44.10411 0,-111.88373 69.80896,-190.89232c66.8326,-74.81464 167.75796,-153.0115 284.10622,-220.24997c156.12313,-90.23755 318.19897,-146.24706 422.64183,-146.24706c69.40309,0 98.21958,24.62254 110.12498,45.32171c25.43427,44.10411 0,111.88373 -69.80895,190.89232c-66.83261,74.81464 -167.62268,153.0115 -284.10623,220.24997c-156.12313,90.50812 -318.06368,146.24706 -422.64183,146.24706zm666.43203,-572.40639c-99.43718,0 -255.6956,54.11547 -407.62479,142.1884c-113.5072,65.615 -211.72678,141.64724 -276.53005,214.16197c-59.25644,66.56203 -84.01427,124.60087 -66.15617,155.58198c14.3406,24.89312 54.11547,30.16937 83.87898,30.16937c99.57247,0 255.6956,-54.11547 407.62479,-142.1884c113.64249,-65.615 211.72678,-141.64724 276.53005,-214.16197c59.39173,-66.56203 84.14956,-124.73616 66.29146,-155.58198c-14.47589,-24.89312 -53.57432,-30.16938 -84.01427,-30.16938l0,0.00001z"/>
  <path id="svg_4" data-spm-anchor-id="a313x.search_index.0.i17.5bcb3a81D6JqjO" p-id="7221" fill="#7fb2d5" d="m954.19192,615.42819a60.60933,60.60933 0 1 1 -60.74461,-60.74461a60.60933,60.60933 0 0 1 60.74461,60.74461z"/>
  <path id="svg_5" data-spm-anchor-id="a313x.search_index.0.i8.5bcb3a81D6JqjO" p-id="7222" fill="#0e2e46" d="m893.44731,691.05457a75.76166,75.76166 0 1 1 75.76166,-75.62638a75.76166,75.76166 0 0 1 -75.76166,75.62638zm0,-121.08337a45.457,45.457 0 1 0 45.45699,45.45699a45.457,45.457 0 0 0 -45.45699,-45.45699z"/>
  <path id="svg_6" data-spm-anchor-id="a313x.search_index.0.i15.5bcb3a81D6JqjO" p-id="7223" fill="#d1e4a5" d="m464.85278,136.2357a60.60933,60.60933 0 1 1 -60.47404,-60.60933a60.47404,60.47404 0 0 1 60.47404,60.60933z"/>
  <path id="svg_7" data-spm-anchor-id="a313x.search_index.0.i7.5bcb3a81D6JqjO" p-id="7224" fill="#0e2e46" d="m404.37874,211.86207a75.76166,75.76166 0 1 1 75.62637,-75.62637a75.62637,75.62637 0 0 1 -75.62637,75.62637zm0,-121.08337a45.457,45.457 0 1 0 45.3217,45.457a45.59228,45.59228 0 0 0 -45.3217,-45.457z"/>
  <path id="svg_8" data-spm-anchor-id="a313x.search_index.0.i13.5bcb3a81D6JqjO" p-id="7225" fill="#ff7c02" d="m268.14304,796.9856a60.60933,60.60933 0 1 1 -60.47404,-60.60933a60.47404,60.47404 0 0 1 60.47404,60.60933z"/>
  <path id="svg_9" data-spm-anchor-id="a313x.search_index.0.i5.5bcb3a81D6JqjO" p-id="7226" fill="#0e2e46" d="m207.669,872.61197a75.62637,75.62637 0 1 1 75.62637,-75.62637a75.76166,75.76166 0 0 1 -75.62637,75.62637zm0,-121.75981a45.457,45.457 0 1 0 45.32171,45.457a45.59228,45.59228 0 0 0 -45.32171,-44.78056l0,-0.67644z"/>
  <path id="svg_10" class="selected" data-spm-anchor-id="a313x.search_index.0.i14.5bcb3a81D6JqjO" p-id="7227" fill="#ffffff" d="m584.98912,512.93236a73.19118,73.19118 0 1 1 -73.05589,-73.05589a73.19118,73.19118 0 0 1 73.05589,73.05589z"/>
  <path id="svg_11" data-spm-anchor-id="a313x.search_index.0.i6.5bcb3a81D6JqjO" p-id="7228" fill="#ffffff" d="m511.93324,600.27586a88.34351,88.34351 0 1 1 88.20821,-88.3435a88.4788,88.4788 0 0 1 -88.20821,88.3435zm0,-146.24706a58.03884,58.03884 0 1 0 58.03884,57.90356a58.03884,58.03884 0 0 0 -58.03884,-57.90356z"/>
  <g transform="rotate(2.00337 511.5 528.5)" stroke="null">
   <path fill="#0e2e46" p-id="11155" d="m528.19429,562.89427c-6.86415,-5.08881 -3.30496,-12.21314 3.47445,-13.2309c6.77941,-1.01776 9.99963,-8.73579 9.99963,-8.73579l-8.72849,0l2.71176,-7.20915l4.40662,0c8.13529,0 11.77922,-9.58392 11.77922,-9.58392l-11.77922,-0.50888l2.45754,-6.2762l3.81342,0c13.1351,0 16.52481,-10.26243 16.52481,-10.26243l-15.67738,-0.59369l3.3897,-7.37877l10.84705,0c5.08456,0 8.64375,-2.71403 10.9318,-5.42806l3.22022,-5.25844c0.08474,-0.25444 0.16949,-0.42407 0.16949,-0.42407l-19.91451,0l2.79651,-6.95471l10.59283,0c8.72849,0 13.55882,-4.57993 15.93161,-8.22691l0.76268,-1.2722c0.25423,-0.42407 0.42371,-0.76332 0.5932,-1.10258l-39.82902,0c-8.559,0 -11.52499,2.88366 -14.82996,8.22691s-6.52518,12.38277 -6.52518,12.38277l-6.10147,-14.24866s11.01654,-3.98623 12.03345,-4.49511c-1.86434,-2.12034 -4.99981,-3.81661 -13.1351,-5.42806s-13.47407,0.76332 -15.08418,4.4103c-1.52537,3.64698 -5.67775,18.74378 -5.67775,18.74378s-2.45754,-4.66474 -3.30496,-7.20915c-4.49136,-11.19538 -11.01654,-12.29795 -18.21966,-12.29795l-39.32057,0c1.77959,3.56217 6.52518,10.60168 17.37223,10.60168l10.59283,0l2.79651,6.95471l-19.91451,0l3.9829,6.36101c2.28805,2.45959 5.67775,4.66474 10.25385,4.66474l10.84705,0l3.3897,7.37877l-15.67738,0.59369s3.3897,10.26243 16.52481,10.26243l3.81342,0l2.45754,6.2762l-11.77922,0.50888s3.64393,9.58392 11.77922,9.58392l4.40662,0l2.71176,7.20915l-8.72849,0s3.22022,7.71803 9.99963,8.73579c6.77941,1.01776 10.3386,8.14209 3.47445,13.2309l17.62646,27.73401l16.69429,-26.97069c-0.33897,-0.25444 -0.67794,-0.50888 -0.93217,-0.76332z"/>
  </g>
 </g>
</svg>